<?xml version="1.0" standalone="no"?>
<!DOCTYPE svg PUBLIC "-//W3C//DTD SVG 20010904//EN"
 "http://www.w3.org/TR/2001/REC-SVG-20010904/DTD/svg10.dtd">
<svg version="1.0" xmlns="http://www.w3.org/2000/svg"
 width="100.000000pt" height="100.000000pt" viewBox="0 0 100.000000 100.000000"
 preserveAspectRatio="xMidYMid meet">
<metadata>
Created by potrace 1.14, written by Peter Selinger 2001-2017
</metadata>
<g transform="translate(0.000000,100.000000) scale(0.100000,-0.100000)"
fill="#000000" stroke="none">
<path d="M0 500 l0 -500 500 0 500 0 0 500 0 500 -500 0 -500 0 0 -500z m295
163 c27 -71 51 -131 54 -135 4 -4 29 52 56 125 l51 132 57 3 c31 2 57 2 57 0
0 -2 9 -97 20 -213 27 -290 30 -265 -29 -265 -60 0 -58 -5 -67 153 -4 64 -9
117 -13 117 -3 0 -26 -59 -51 -131 l-44 -130 -34 3 -35 3 -46 133 -46 134 -8
-74 c-4 -40 -11 -102 -15 -138 l-7 -65 -44 -3 c-24 -2 -47 0 -51 5 -7 7 25
432 35 461 3 7 24 12 58 12 l54 0 48 -127z m567 37 c36 -10 36 -11 25 -46 -9
-30 -14 -34 -34 -30 -13 3 -34 9 -47 12 -16 4 -32 -2 -52 -19 -25 -22 -28 -32
-28 -80 0 -77 22 -101 84 -94 25 2 53 8 63 12 14 6 17 2 17 -29 0 -45 -24 -59
-100 -60 -108 0 -154 50 -155 169 0 86 22 129 80 156 45 21 93 24 147 9z"/>
</g>
</svg>
